<?xml version="1.0" encoding="utf-8"?>
<svg viewBox="25.258 49.943 332.377 246.842" xmlns="http://www.w3.org/2000/svg">
  <path d="M 295.637 161.022 C 295.637 217.931 247.319 264.064 187.715 264.064 C 128.111 264.064 79.793 217.931 79.793 161.022 C 79.793 104.113 128.111 57.98 187.715 57.98 C 247.319 57.98 295.637 104.113 295.637 161.022 Z" style="fill: rgb(21, 0, 255); stroke: rgb(70, 175, 170);"/>
  <path d="M 117.458 216.986 Q 121.958 195.986 125.858 176.186 Q 127.358 167.636 129.008 158.486 Q 130.658 149.336 132.083 140.336 Q 133.508 131.336 134.633 122.861 Q 135.758 114.386 136.358 107.486 Q 139.808 107.786 144.158 108.011 Q 148.508 108.236 152.258 108.536 Q 156.758 108.836 161.258 108.836 Q 161.108 109.436 160.808 111.086 Q 160.508 112.736 160.058 115.061 Q 159.608 117.386 159.083 120.236 Q 158.558 123.086 157.958 125.936 Q 156.758 132.536 155.258 140.786 L 156.158 140.636 Q 157.658 138.236 160.433 133.961 Q 163.208 129.686 166.208 124.886 Q 169.208 120.086 172.058 115.661 Q 174.908 111.236 176.858 108.086 Q 184.358 107.486 191.858 106.736 Q 199.358 105.986 206.858 104.786 Q 199.808 114.236 193.208 123.386 Q 190.358 127.286 187.433 131.486 Q 184.508 135.686 181.658 139.736 Q 178.808 143.786 176.333 147.536 Q 173.858 151.286 171.908 154.436 Q 175.208 169.586 179.708 183.686 Q 184.208 197.786 188.858 212.486 Q 185.408 212.336 181.808 212.261 Q 178.208 212.186 174.758 212.186 Q 170.408 212.186 166.358 212.261 Q 162.308 212.336 157.958 212.486 Q 156.608 202.736 155.033 192.011 Q 153.458 181.286 152.108 171.536 L 149.408 174.686 Q 148.358 179.186 147.083 185.786 Q 145.808 192.386 144.608 198.536 Q 143.258 205.736 141.758 213.386 Z" style="fill: rgb(255, 221, 0); stroke-dashoffset: 50px; stroke-miterlimit: 21; stroke-width: 5px; white-space: pre;"/>
  <path d="M 262.043 140.186 Q 262.043 147.986 259.793 156.761 Q 257.543 165.536 253.493 174.161 Q 249.443 182.786 243.518 190.661 Q 237.593 198.536 230.093 204.461 Q 222.593 210.386 213.668 213.986 Q 204.743 217.586 194.693 217.586 Q 192.593 217.586 190.493 217.361 Q 188.393 217.136 186.293 216.836 Q 190.343 196.136 194.243 176.486 Q 195.743 168.236 197.393 159.311 Q 199.043 150.386 200.543 141.686 Q 202.043 132.986 203.468 125.036 Q 204.893 117.086 205.793 110.636 Q 212.243 109.436 218.843 108.386 Q 225.443 107.336 232.343 107.336 Q 240.443 107.336 246.068 109.886 Q 251.693 112.436 255.218 116.936 Q 258.743 121.436 260.393 127.436 Q 262.043 133.436 262.043 140.186 Z M 226.643 128.486 Q 224.993 137.336 223.193 145.436 Q 221.393 153.536 219.593 161.786 Q 217.793 170.036 215.993 179.036 Q 214.193 188.036 212.543 198.686 Q 216.143 196.286 219.518 192.161 Q 222.893 188.036 225.893 182.636 Q 228.893 177.236 231.368 171.236 Q 233.843 165.236 235.643 159.536 Q 237.443 153.836 238.418 148.886 Q 239.393 143.936 239.393 140.336 Q 239.393 134.786 236.318 131.636 Q 233.243 128.486 226.643 128.486 Z" style="fill: rgb(255, 221, 0); stroke-dashoffset: 50px; stroke-miterlimit: 21; stroke-width: 5px; white-space: pre;"/>
  <ellipse style="stroke: rgb(0, 0, 0); fill: rgb(0, 34, 255); paint-order: fill markers; stroke-opacity: 0;" cx="267.507" cy="268.37" rx="31.573" ry="18.657"/>
  <ellipse style="stroke: rgb(0, 0, 0); fill: rgb(0, 34, 255); paint-order: fill markers; stroke-opacity: 0;" cx="98.161" cy="260.907" rx="31.573" ry="18.657"/>
  <ellipse style="fill: rgb(0, 8, 255); stroke: rgb(0, 0, 0); stroke-opacity: 0.19;" cx="75.488" cy="144.98" rx="13.49" ry="12.629"/>
  <ellipse style="stroke: rgb(0, 0, 0); fill: rgb(0, 21, 255); stroke-opacity: 0;" cx="318.025" cy="157.322" rx="13.203" ry="11.768"/>
  <ellipse style="stroke: rgb(0, 0, 0); fill: rgb(0, 8, 255); stroke-opacity: 0;" cx="339.265" cy="203.534" rx="9.759" ry="8.611"/>
  <ellipse style="stroke-opacity: 0; stroke: rgb(6, 93, 242); fill: rgb(0, 8, 255);" cx="42.193" cy="180.859" rx="8.324" ry="7.176"/>
</svg>